<?xml version="1.0" standalone="no"?>
<!DOCTYPE svg PUBLIC "-//W3C//DTD SVG 20010904//EN"
 "http://www.w3.org/TR/2001/REC-SVG-20010904/DTD/svg10.dtd">
<svg version="1.0" xmlns="http://www.w3.org/2000/svg"
 width="14" height="18" viewBox="0 0 200 257"
 preserveAspectRatio="xMidYMid meet">

<g transform="translate(0.000000,257.000000) scale(0.100000,-0.100000)"
fill="#A0A0A0" stroke="none">
<path d="M1657 1819 c-38 -22 -47 -62 -47 -217 0 -175 -20 -271 -81 -397 -146
-296 -385 -447 -794 -501 -109 -15 -312 -15 -534 -1 -30 2 -38 -3 -58 -32 -37
-55 -31 -80 34 -143 98 -92 268 -179 448 -228 102 -28 312 -38 423 -20 97 16
230 59 319 103 213 109 414 312 489 497 69 171 49 354 -53 478 l-36 44 7 76
c3 43 9 118 13 168 l6 91 -43 47 c-43 47 -61 54 -93 35z"/>
<path d="M1443 1336 c-60 -78 -175 -171 -268 -215 -92 -44 -136 -56 -261 -71
-192 -22 -499 35 -742 137 l-63 26 -34 -33 c-19 -19 -35 -41 -35 -49 0 -61
152 -246 259 -317 l45 -29 180 1 c240 2 392 29 551 99 158 70 296 212 370 379
20 45 47 126 42 126 -1 0 -21 -24 -44 -54z"/>
</g>
</svg>
